#!OML:ASF X:\für Bonn\!DataBase\2005_08_10_Bjorn_Final\c3d\bjorn.ASF
:FULLY-SPECIFIED
:DEGREES
63
root -22.2263 18.2754 -25.7395 -172.132 -184.964 -177.471
lowerback -0.793156 0.0923188 -6.48562
upperback 9.90145 1.06652 -5.19935
thorax 11.0844 0.24648 -1.88227
lowerneck -3.79844 0.828657 -0.179527
upperneck 9.01492 0.791835 3.72294
head 3.57469 0.537499 1.29145
rclavicle -3.18055e-015 -4.13472e-014
rhumerus -40.991 -10.0267 -93.07
rradius 24.8077
rwrist 6.62321
rhand -10.5441 13.2979
rfingers 7.12502
rthumb 15.4596 -16.1039
lclavicle -3.18055e-015 -4.13472e-014
lhumerus -13.7506 -20.5017 86.6903
lradius 74.6512
lwrist -13.7409
lhand -35.2508 -19.2175
lfingers 7.12502
lthumb -8.38684 10.5959
rfemur -38.441 -9.60589 14.1366
rtibia 58.4452
rfoot -28.7875 4.53672
rtoes -16.9483
lfemur -2.35964 6.02926 -24.8709
ltibia 31.0158
lfoot -29.5439 -3.50479
ltoes -10.6014
64
root -22.2056 18.2673 -25.6153 -171.889 -185.261 -177.596
lowerback -0.890505 -0.0682291 -6.28255
upperback 9.84941 0.828392 -5.04536
thorax 11.0805 0.140352 -1.85034
lowerneck -3.84673 0.872412 -0.0315862
upperneck 8.80706 0.855029 3.6114
head 3.51018 0.567368 1.22838
rclavicle -1.51076e-014 -2.06736e-014
rhumerus -41.7506 -9.59677 -92.9473
rradius 24.98
rwrist 6.96337
rhand -10.3441 13.0799
rfingers 7.12502
rthumb 15.6523 -16.3069
lclavicle -1.51076e-014 -2.06736e-014
lhumerus -13.2287 -20.9078 86.5639
lradius 75.9735
lwrist -14.3086
lhand -35.7195 -18.8771
lfingers 7.12502
lthumb -8.8391 10.9178
rfemur -39.2437 -9.56243 14.2919
rtibia 58.1677
rfoot -28.6764 4.32572
rtoes -16.3051
lfemur -1.89401 5.94482 -24.6344
ltibia 30.3829
lfoot -29.4414 -3.83225
ltoes -10.4535
65
root -22.1852 18.2619 -25.488 -171.605 -185.52 -177.772
lowerback -1.03951 -0.227987 -6.05897
upperback 9.76019 0.587936 -4.85582
thorax 11.064 0.033033 -1.79134
lowerneck -3.91174 0.923208 0.130744
upperneck 8.70538 0.930888 3.4087
head 3.48605 0.601514 1.13508
rclavicle 2.06736e-014 5.08889e-014
rhumerus -42.5433 -8.98711 -92.8809
rradius 25.1602
rwrist 7.20676
rhand -10.3191 13.0663
rfingers 7.12502
rthumb 15.6763 -16.3186
lclavicle 2.06736e-014 5.08889e-014
lhumerus -12.8028 -21.2631 86.4652
lradius 77.2249
lwrist -15.0092
lhand -36.2538 -18.7168
lfingers 7.12502
lthumb -9.35474 11.0556
rfemur -40.0671 -9.4258 14.4818
rtibia 57.8767
rfoot -28.5682 4.14671
rtoes -15.9495
lfemur -1.4599 5.90948 -24.3411
ltibia 29.7242
lfoot -29.2985 -4.2748
ltoes -9.93676
66
root -22.1639 18.2594 -25.3572 -171.312 -185.803 -178.028
lowerback -1.21322 -0.390586 -5.71225
upperback 9.65761 0.335379 -4.66468
thorax 11.0458 -0.0691659 -1.80099
lowerneck -3.96831 0.992995 0.359177
upperneck 8.61064 1.02803 3.19257
head 3.46309 0.647761 1.02688
rclavicle 2.38542e-014 3.33958e-014
rhumerus -43.3606 -8.3048 -92.893
rradius 25.4176
rwrist 7.32753
rhand -10.4095 13.2133
rfingers 7.12502
rthumb 15.5893 -16.1784
lclavicle 2.38542e-014 3.33958e-014
lhumerus -12.4185 -21.6585 86.3093
lradius 78.4662
lwrist -15.7361
lhand -36.7133 -18.6654
lfingers 7.12502
lthumb -9.79805 11.0866
rfemur -40.8842 -9.32335 14.7644
rtibia 57.5775
rfoot -28.4224 3.89225
rtoes -16.1334
lfemur -1.02315 5.85951 -23.9542
ltibia 29.0361
lfoot -29.1301 -4.68944
ltoes -9.75289
67
root -22.1438 18.2601 -25.2231 -171.019 -186.094 -178.26
lowerback -1.385 -0.565927 -5.41379
upperback 9.53674 0.0645707 -4.45263
thorax 11.0058 -0.18552 -1.76377
lowerneck -4.10102 1.08017 0.541683
upperneck 8.66259 1.1478 2.96076
head 3.50618 0.705065 0.925587
rclavicle -1.59028e-015 -1.11319e-014
rhumerus -44.214 -7.51152 -92.9362
rradius 25.7411
rwrist 7.35046
rhand -10.6288 13.5633
rfingers 7.12502
rthumb 15.3781 -15.8448
lclavicle -1.59028e-015 -1.11319e-014
lhumerus -12.1302 -22.0037 86.1932
lradius 79.7374
lwrist -16.4999
lhand -37.1895 -18.7978
lfingers 7.12502
lthumb -10.2574 10.9321
rfemur -41.6794 -9.20838 15.0017
rtibia 57.2894
rfoot -28.2678 3.66549
rtoes -16.5759
lfemur -0.557533 5.86611 -23.5621
ltibia 28.2931
lfoot -28.8583 -5.24799
ltoes -9.25023
68
root -22.122 18.2637 -25.0848 -170.699 -186.365 -178.503
lowerback -1.61134 -0.742456 -5.08419
upperback 9.40591 -0.206909 -4.24345
thorax 10.987 -0.299528 -1.74927
lowerneck -4.22126 1.18785 0.702465
upperneck 8.68159 1.29237 2.7873
head 3.5356 0.77568 0.847997
rclavicle 7.15625e-015 0
rhumerus -45.0045 -6.67163 -93.02
rradius 26.0269
rwrist 7.29366
rhand -11.0453 14.1022
rfingers 7.12502
rthumb 14.9769 -15.3363
lclavicle 7.15625e-015 0
lhumerus -11.8863 -22.3455 86.0252
lradius 80.9764
lwrist -17.3771
lhand -37.6582 -18.9442
lfingers 7.12502
lthumb -10.7096 10.7628
rfemur -42.4737 -9.07596 15.2327
rtibia 57.0106
rfoot -28.1006 3.45165
rtoes -17.1361
lfemur -0.0789134 5.91269 -23.1673
ltibia 27.476
lfoot -28.5126 -5.80373
ltoes -8.94618
69
root -22.1017 18.2736 -24.942 -170.359 -186.692 -178.733
lowerback -1.84118 -0.940472 -4.75602
upperback 9.24261 -0.510015 -4.03729
thorax 10.9333 -0.428448 -1.74114
lowerneck -4.27807 1.31092 0.886007
upperneck 8.67925 1.45875 2.59575
head 3.546 0.856336 0.760582
rclavicle 0 -2.38542e-014
rhumerus -45.9007 -5.83889 -93.1345
rradius 26.4468
rwrist 7.20216
rhand -11.5394 14.6458
rfingers 7.12502
rthumb 14.5008 -14.8275
lclavicle 0 -2.38542e-014
lhumerus -11.7249 -22.6961 85.8457
lradius 82.2056
lwrist -18.1853
lhand -38.0232 -19.1843
lfingers 7.12502
lthumb -11.0616 10.5043
rfemur -43.2738 -8.96403 15.4498
rtibia 56.7451
rfoot -27.9361 3.1511
rtoes -18.1701
lfemur 0.419304 5.94632 -22.7505
ltibia 26.575
lfoot -28.0215 -6.44774
ltoes -8.39965
70
root -22.0807 18.2871 -24.7925 -170.031 -186.998 -178.971
lowerback -2.07103 -1.11668 -4.41808
upperback 9.04945 -0.789017 -3.81491
thorax 10.845 -0.545706 -1.71853
lowerneck -4.21399 1.42452 1.02728
upperneck 8.57263 1.61919 2.41553
head 3.49702 0.931354 0.68152
rclavicle 2.70347e-014 0
rhumerus -46.8676 -4.95804 -93.3005
rradius 27.1236
rwrist 6.60149
rhand -11.7204 14.9028
rfingers 7.12502
rthumb 14.3265 -14.5829
lclavicle 2.70347e-014 0
lhumerus -11.6241 -23.13 85.6883
lradius 83.382
lwrist -18.8399
lhand -38.3832 -19.3737
lfingers 7.12502
lthumb -11.4088 10.2959
rfemur -44.0374 -8.81604 15.6385
rtibia 56.4927
rfoot -27.7513 2.926
rtoes -18.9394
lfemur 0.980173 6.01462 -22.3211
ltibia 25.6069
lfoot -27.4462 -7.10668
ltoes -8.0907
71
root -22.0606 18.305 -24.638 -169.662 -187.341 -179.148
lowerback -2.29766 -1.31999 -4.13804
upperback 8.81596 -1.10313 -3.59247
thorax 10.711 -0.684849 -1.66753
lowerneck -4.1099 1.5341 1.15101
upperneck 8.40952 1.78157 2.18597
head 3.4217 1.00415 0.588464
rclavicle -2.3059e-014 -5.725e-014
rhumerus -47.9076 -4.04507 -93.4992
rradius 27.9382
rwrist 5.81032
rhand -11.9007 15.119
rfingers 7.12502
rthumb 14.1526 -14.379
lclavicle -2.3059e-014 -5.725e-014
lhumerus -11.6123 -23.5551 85.5472
lradius 84.5087
lwrist -19.3956
lhand -38.6733 -19.5197
lfingers 7.12502
lthumb -11.6887 10.1342
rfemur -44.7912 -8.72956 15.7632
rtibia 56.2608
rfoot -27.5946 2.69668
rtoes -19.9915
lfemur 1.53642 6.05577 -21.9377
ltibia 24.5887
lfoot -26.7404 -7.78533
ltoes -7.84569
72
root -22.0417 18.3266 -24.4767 -169.257 -187.712 -179.302
lowerback -2.57671 -1.51528 -3.84946
upperback 8.5645 -1.40355 -3.38554
thorax 10.5886 -0.816015 -1.63912
lowerneck -3.97492 1.63548 1.27937
upperneck 8.17737 1.9316 1.98817
head 3.31745 1.07171 0.503549
rclavicle 1.11319e-014 -2.22639e-014
rhumerus -48.9814 -3.24854 -93.699
rradius 28.7876
rwrist 5.08713
rhand -12.1943 15.3055
rfingers 7.12502
rthumb 13.8697 -14.212
lclavicle 1.11319e-014 -2.22639e-014
lhumerus -11.6163 -24.1376 85.3498
lradius 85.5539
lwrist -19.7552
lhand -38.978 -19.7122
lfingers 7.12502
lthumb -11.9825 9.92483
rfemur -45.4919 -8.62057 15.8395
rtibia 56.0397
rfoot -27.4447 2.59037
rtoes -20.5167
lfemur 2.08368 6.13021 -21.5551
ltibia 23.5403
lfoot -25.946 -8.41577
ltoes -7.98356
73
root -22.0227 18.3497 -24.3099 -168.854 -188.115 -179.421
lowerback -2.82972 -1.72654 -3.60336
upperback 8.28645 -1.72674 -3.1631
thorax 10.4232 -0.962721 -1.57275
lowerneck -3.80794 1.74137 1.41387
upperneck 7.93945 2.09221 1.73263
head 3.20694 1.1426 0.399036
rclavicle 3.97569e-015 -1.59028e-015
rhumerus -50.0925 -2.54435 -93.8375
rradius 29.767
rwrist 4.14661
rhand -12.3605 15.2811
rfingers 7.12502
rthumb 13.7095 -14.2473
lclavicle 3.97569e-015 -1.59028e-015
lhumerus -11.7415 -24.7633 85.1738
lradius 86.5611
lwrist -19.9437
lhand -39.3347 -19.9524
lfingers 7.12502
lthumb -12.3263 9.66424
rfemur -46.1094 -8.54246 15.8613
rtibia 55.823
rfoot -27.2717 2.54385
rtoes -20.9374
lfemur 2.65177 6.20336 -21.1844
ltibia 22.4802
lfoot -25.0155 -9.11109
ltoes -8.01665
